<?xml version="1.0" encoding="utf-8"?>
<svg xmlns="http://www.w3.org/2000/svg" version="1.1" width="2240" height="2240">
<rect width="2240" height="2240" fill="white" x="0" y="0"/>

<circle cx="67" cy="935" r="4" fill="black" />
<circle cx="82" cy="778" r="4" fill="black" />
<circle cx="1679" cy="493" r="4" fill="black" />
<circle cx="980" cy="16" r="4" fill="black" />
<circle cx="41" cy="140" r="4" fill="black" />
<circle cx="2131" cy="2184" r="4" fill="black" />
<circle cx="206" cy="19" r="4" fill="black" />
<circle cx="2114" cy="259" r="4" fill="black" />
<circle cx="41" cy="21" r="4" fill="black" />
<circle cx="19" cy="1034" r="4" fill="black" />
<circle cx="1692" cy="1936" r="4" fill="black" />
<circle cx="24" cy="1313" r="4" fill="black" />
<circle cx="2165" cy="808" r="4" fill="black" />
<circle cx="2186" cy="356" r="4" fill="black" />
<circle cx="1036" cy="1649" r="4" fill="black" />
<circle cx="1627" cy="124" r="4" fill="black" />
<circle cx="354" cy="730" r="4" fill="black" />
<circle cx="2144" cy="2023" r="4" fill="black" />
<circle cx="1214" cy="2145" r="4" fill="black" />
<circle cx="2029" cy="1245" r="4" fill="black" />
<circle cx="54" cy="960" r="4" fill="black" />
<circle cx="1198" cy="1502" r="4" fill="black" />
<circle cx="969" cy="112" r="4" fill="black" />
<circle cx="1751" cy="31" r="4" fill="black" />
<circle cx="124" cy="1761" r="4" fill="black" />
<circle cx="1055" cy="837" r="4" fill="black" />
<circle cx="1466" cy="100" r="4" fill="black" />
<circle cx="1171" cy="431" r="4" fill="black" />
<circle cx="899" cy="157" r="4" fill="black" />
<circle cx="2029" cy="956" r="4" fill="black" />
<circle cx="1796" cy="457" r="4" fill="black" />
<circle cx="1070" cy="2140" r="4" fill="black" />
<circle cx="1177" cy="15" r="4" fill="black" />
<circle cx="963" cy="160" r="4" fill="black" />
<circle cx="2150" cy="2013" r="4" fill="black" />
<circle cx="426" cy="2195" r="4" fill="black" />
<circle cx="1995" cy="646" r="4" fill="black" />
<circle cx="1466" cy="733" r="4" fill="black" />
<circle cx="748" cy="987" r="4" fill="black" />
<circle cx="755" cy="2114" r="4" fill="black" />
<circle cx="1769" cy="831" r="4" fill="black" />
<circle cx="720" cy="35" r="4" fill="black" />
<circle cx="2174" cy="912" r="4" fill="black" />
<circle cx="1708" cy="842" r="4" fill="black" />
<circle cx="1059" cy="538" r="4" fill="black" />
<circle cx="819" cy="625" r="4" fill="black" />
<circle cx="985" cy="1879" r="4" fill="black" />
<circle cx="1786" cy="1183" r="4" fill="black" />
<circle cx="1884" cy="519" r="4" fill="black" />
<circle cx="365" cy="835" r="4" fill="black" />
<circle cx="1553" cy="781" r="4" fill="black" />
<circle cx="799" cy="1317" r="4" fill="black" />
<circle cx="1417" cy="1286" r="4" fill="black" />
<circle cx="1072" cy="1187" r="4" fill="black" />
<circle cx="1294" cy="848" r="4" fill="black" />
<circle cx="1070" cy="2084" r="4" fill="black" />
<circle cx="1669" cy="812" r="4" fill="black" />
<circle cx="1140" cy="643" r="4" fill="black" />
<circle cx="1714" cy="1870" r="4" fill="black" />
<circle cx="1475" cy="543" r="4" fill="black" />
<circle cx="177" cy="63" r="4" fill="black" />
<circle cx="1158" cy="183" r="4" fill="black" />
<circle cx="964" cy="713" r="4" fill="black" />
<circle cx="1356" cy="1869" r="4" fill="black" />
<circle cx="253" cy="742" r="4" fill="black" />
<circle cx="473" cy="828" r="4" fill="black" />
<circle cx="1514" cy="293" r="4" fill="black" />
<circle cx="2135" cy="1952" r="4" fill="black" />
<circle cx="601" cy="2228" r="4" fill="black" />
<circle cx="2160" cy="916" r="4" fill="black" />
<circle cx="845" cy="1000" r="4" fill="black" />
<circle cx="770" cy="1536" r="4" fill="black" />
<circle cx="833" cy="1900" r="4" fill="black" />
<circle cx="2169" cy="316" r="4" fill="black" />
<circle cx="570" cy="445" r="4" fill="black" />
<circle cx="2101" cy="737" r="4" fill="black" />
<circle cx="1750" cy="59" r="4" fill="black" />
<circle cx="2162" cy="483" r="4" fill="black" />
<circle cx="2015" cy="319" r="4" fill="black" />
<circle cx="1374" cy="1289" r="4" fill="black" />
<circle cx="1051" cy="1837" r="4" fill="black" />
<circle cx="2107" cy="1586" r="4" fill="black" />
<circle cx="1152" cy="1043" r="4" fill="black" />
<circle cx="339" cy="1743" r="4" fill="black" />
<circle cx="1040" cy="268" r="4" fill="black" />
<circle cx="428" cy="1876" r="4" fill="black" />
<circle cx="289" cy="219" r="4" fill="black" />
<circle cx="1181" cy="143" r="4" fill="black" />
<circle cx="1141" cy="150" r="4" fill="black" />
<circle cx="450" cy="1701" r="4" fill="black" />
<circle cx="585" cy="1572" r="4" fill="black" />
<circle cx="1460" cy="105" r="4" fill="black" />
<circle cx="1622" cy="422" r="4" fill="black" />
<circle cx="578" cy="437" r="4" fill="black" />
<circle cx="731" cy="973" r="4" fill="black" />
<circle cx="1716" cy="804" r="4" fill="black" />
<circle cx="580" cy="1593" r="4" fill="black" />
<circle cx="1411" cy="753" r="4" fill="black" />
<circle cx="405" cy="1740" r="4" fill="black" />
<circle cx="1517" cy="466" r="4" fill="black" />
<circle cx="1030" cy="1935" r="4" fill="black" />
<circle cx="111" cy="340" r="4" fill="black" />
<circle cx="1176" cy="313" r="4" fill="black" />
<circle cx="474" cy="86" r="4" fill="black" />
<circle cx="454" cy="2166" r="4" fill="black" />
<circle cx="808" cy="60" r="4" fill="black" />
<circle cx="1507" cy="1289" r="4" fill="black" />
<circle cx="155" cy="2150" r="4" fill="black" />
<circle cx="1702" cy="1976" r="4" fill="black" />
<circle cx="356" cy="1454" r="4" fill="black" />
<circle cx="718" cy="2063" r="4" fill="black" />
<circle cx="27" cy="319" r="4" fill="black" />
<circle cx="456" cy="1429" r="4" fill="black" />
<circle cx="1062" cy="2103" r="4" fill="black" />
<circle cx="2190" cy="348" r="4" fill="black" />
<circle cx="338" cy="20" r="4" fill="black" />
<circle cx="1305" cy="1692" r="4" fill="black" />
<circle cx="351" cy="250" r="4" fill="black" />
<circle cx="1995" cy="2067" r="4" fill="black" />
<circle cx="1578" cy="1470" r="4" fill="black" />
<circle cx="2002" cy="1407" r="4" fill="black" />
<circle cx="1521" cy="309" r="4" fill="black" />
<circle cx="466" cy="697" r="4" fill="black" />
<circle cx="229" cy="1189" r="4" fill="black" />
<circle cx="442" cy="1827" r="4" fill="black" />
<circle cx="412" cy="1151" r="4" fill="black" />
<circle cx="690" cy="1682" r="4" fill="black" />
<circle cx="1460" cy="1136" r="4" fill="black" />
<circle cx="880" cy="1544" r="4" fill="black" />
<circle cx="1008" cy="2091" r="4" fill="black" />
<circle cx="1882" cy="368" r="4" fill="black" />
<circle cx="1133" cy="2208" r="4" fill="black" />
<circle cx="2050" cy="1474" r="4" fill="black" />
<circle cx="1479" cy="845" r="4" fill="black" />
<circle cx="341" cy="2078" r="4" fill="black" />
<circle cx="1337" cy="112" r="4" fill="black" />
<circle cx="1255" cy="627" r="4" fill="black" />
<circle cx="1663" cy="742" r="4" fill="black" />
<circle cx="345" cy="1882" r="4" fill="black" />
<circle cx="1921" cy="778" r="4" fill="black" />
<circle cx="510" cy="1354" r="4" fill="black" />
<circle cx="1919" cy="1190" r="4" fill="black" />
<circle cx="805" cy="179" r="4" fill="black" />
<circle cx="96" cy="706" r="4" fill="black" />
<circle cx="744" cy="125" r="4" fill="black" />
<circle cx="1819" cy="396" r="4" fill="black" />
<circle cx="1735" cy="721" r="4" fill="black" />
<circle cx="1625" cy="585" r="4" fill="black" />
<circle cx="1216" cy="874" r="4" fill="black" />
<circle cx="1421" cy="1547" r="4" fill="black" />
<circle cx="721" cy="1779" r="4" fill="black" />
<circle cx="1649" cy="997" r="4" fill="black" />
<circle cx="1427" cy="1081" r="4" fill="black" />
<circle cx="1729" cy="1762" r="4" fill="black" />
<circle cx="1985" cy="450" r="4" fill="black" />
<circle cx="309" cy="264" r="4" fill="black" />
<circle cx="826" cy="1249" r="4" fill="black" />
<circle cx="475" cy="1621" r="4" fill="black" />
<circle cx="450" cy="1813" r="4" fill="black" />
<circle cx="1349" cy="1184" r="4" fill="black" />
<circle cx="960" cy="937" r="4" fill="black" />
<circle cx="601" cy="464" r="4" fill="black" />
<circle cx="1648" cy="2217" r="4" fill="black" />
<circle cx="1040" cy="633" r="4" fill="black" />
<circle cx="860" cy="1482" r="4" fill="black" />
<circle cx="2170" cy="1571" r="4" fill="black" />
<circle cx="61" cy="619" r="4" fill="black" />
<circle cx="338" cy="1478" r="4" fill="black" />
<circle cx="721" cy="1088" r="4" fill="black" />
<circle cx="1009" cy="1727" r="4" fill="black" />
<circle cx="560" cy="340" r="4" fill="black" />
<circle cx="1012" cy="1376" r="4" fill="black" />
<circle cx="1579" cy="1478" r="4" fill="black" />
<circle cx="766" cy="1050" r="4" fill="black" />
<circle cx="1060" cy="1136" r="4" fill="black" />
<circle cx="2225" cy="1041" r="4" fill="black" />
<circle cx="2063" cy="595" r="4" fill="black" />
<circle cx="1496" cy="1480" r="4" fill="black" />
<circle cx="581" cy="1557" r="4" fill="black" />
<circle cx="1134" cy="462" r="4" fill="black" />
<circle cx="2060" cy="104" r="4" fill="black" />
<circle cx="1055" cy="2111" r="4" fill="black" />
<circle cx="713" cy="1383" r="4" fill="black" />
<circle cx="389" cy="456" r="4" fill="black" />
<circle cx="1492" cy="1388" r="4" fill="black" />
<circle cx="2173" cy="2042" r="4" fill="black" />
<circle cx="1718" cy="2207" r="4" fill="black" />
<circle cx="1187" cy="98" r="4" fill="black" />
<circle cx="1454" cy="975" r="4" fill="black" />
<circle cx="1138" cy="1535" r="4" fill="black" />
<circle cx="2101" cy="163" r="4" fill="black" />
<circle cx="346" cy="1934" r="4" fill="black" />
<circle cx="2001" cy="863" r="4" fill="black" />
<circle cx="214" cy="1603" r="4" fill="black" />
<circle cx="1441" cy="1339" r="4" fill="black" />
<circle cx="2056" cy="301" r="4" fill="black" />
<circle cx="1433" cy="880" r="4" fill="black" />
<circle cx="181" cy="1168" r="4" fill="black" />
<circle cx="1284" cy="560" r="4" fill="black" />
<circle cx="645" cy="545" r="4" fill="black" />
<circle cx="969" cy="587" r="4" fill="black" />
<circle cx="357" cy="1709" r="4" fill="black" />
<circle cx="1815" cy="565" r="4" fill="black" />
<circle cx="1797" cy="69" r="4" fill="black" />
<circle cx="1530" cy="1956" r="4" fill="black" />
<circle cx="626" cy="1401" r="4" fill="black" />
<circle cx="1141" cy="2214" r="4" fill="black" />
<circle cx="135" cy="911" r="4" fill="black" />
<circle cx="846" cy="339" r="4" fill="black" />
<circle cx="283" cy="1308" r="4" fill="black" />
<circle cx="699" cy="1360" r="4" fill="black" />
<circle cx="1599" cy="1154" r="4" fill="black" />
<circle cx="2230" cy="801" r="4" fill="black" />
<circle cx="1343" cy="314" r="4" fill="black" />
<circle cx="1351" cy="1978" r="4" fill="black" />
<circle cx="850" cy="1341" r="4" fill="black" />
<circle cx="1586" cy="228" r="4" fill="black" />
<circle cx="819" cy="1171" r="4" fill="black" />
<circle cx="783" cy="1637" r="4" fill="black" />
<circle cx="1230" cy="1335" r="4" fill="black" />
<circle cx="1363" cy="1846" r="4" fill="black" />
<circle cx="1757" cy="273" r="4" fill="black" />
<circle cx="1829" cy="1882" r="4" fill="black" />
<circle cx="205" cy="1696" r="4" fill="black" />
<circle cx="1242" cy="1730" r="4" fill="black" />
<circle cx="773" cy="963" r="4" fill="black" />
<circle cx="860" cy="1393" r="4" fill="black" />
<circle cx="1138" cy="2111" r="4" fill="black" />
<circle cx="2184" cy="250" r="4" fill="black" />
<circle cx="195" cy="1304" r="4" fill="black" />
<circle cx="2218" cy="66" r="4" fill="black" />
<circle cx="415" cy="1573" r="4" fill="black" />
<circle cx="284" cy="255" r="4" fill="black" />
<circle cx="513" cy="88" r="4" fill="black" />
<circle cx="1883" cy="765" r="4" fill="black" />
<circle cx="444" cy="1015" r="4" fill="black" />
<circle cx="380" cy="2191" r="4" fill="black" />
<circle cx="309" cy="1231" r="4" fill="black" />
<circle cx="873" cy="1756" r="4" fill="black" />
<circle cx="696" cy="1137" r="4" fill="black" />
<circle cx="1255" cy="491" r="4" fill="black" />
<circle cx="1121" cy="2105" r="4" fill="black" />
<circle cx="1874" cy="28" r="4" fill="black" />
<circle cx="1986" cy="1828" r="4" fill="black" />
<circle cx="268" cy="2171" r="4" fill="black" />
<circle cx="2153" cy="255" r="4" fill="black" />
<circle cx="1258" cy="1589" r="4" fill="black" />
<circle cx="849" cy="563" r="4" fill="black" />
<circle cx="1835" cy="1353" r="4" fill="black" />
<circle cx="641" cy="1487" r="4" fill="black" />
<circle cx="2108" cy="107" r="4" fill="black" />
<circle cx="1523" cy="1509" r="4" fill="black" />
<circle cx="1319" cy="853" r="4" fill="black" />
<circle cx="509" cy="1214" r="4" fill="black" />
<circle cx="378" cy="1196" r="4" fill="black" />
<circle cx="120" cy="654" r="4" fill="black" />
<circle cx="708" cy="1231" r="4" fill="black" />
<circle cx="529" cy="351" r="4" fill="black" />
<circle cx="280" cy="1536" r="4" fill="black" />
<circle cx="1200" cy="538" r="4" fill="black" />
<circle cx="507" cy="1123" r="4" fill="black" />
<circle cx="2035" cy="1755" r="4" fill="black" />
<circle cx="481" cy="653" r="4" fill="black" />
<circle cx="87" cy="1337" r="4" fill="black" />
<circle cx="1996" cy="1970" r="4" fill="black" />
<circle cx="1845" cy="904" r="4" fill="black" />
<circle cx="2067" cy="1137" r="4" fill="black" />
<circle cx="183" cy="1156" r="4" fill="black" />
<circle cx="1011" cy="682" r="4" fill="black" />
<circle cx="139" cy="410" r="4" fill="black" />
<circle cx="899" cy="1501" r="4" fill="black" />
<circle cx="1055" cy="1597" r="4" fill="black" />
<circle cx="1753" cy="1574" r="4" fill="black" />
<circle cx="970" cy="2023" r="4" fill="black" />
<circle cx="879" cy="2160" r="4" fill="black" />
<circle cx="1582" cy="1376" r="4" fill="black" />
<circle cx="1052" cy="1386" r="4" fill="black" />
<circle cx="900" cy="555" r="4" fill="black" />
<circle cx="1060" cy="2229" r="4" fill="black" />
<circle cx="913" cy="2078" r="4" fill="black" />
<circle cx="1968" cy="528" r="4" fill="black" />
<circle cx="751" cy="836" r="4" fill="black" />
<circle cx="1655" cy="2176" r="4" fill="black" />
<circle cx="1982" cy="1688" r="4" fill="black" />
<circle cx="1880" cy="1142" r="4" fill="black" />
<circle cx="2088" cy="548" r="4" fill="black" />
<circle cx="1664" cy="912" r="4" fill="black" />
<circle cx="1167" cy="1186" r="4" fill="black" />
<circle cx="255" cy="1158" r="4" fill="black" />
<circle cx="2230" cy="155" r="4" fill="black" />
<circle cx="1087" cy="1581" r="4" fill="black" />
<circle cx="552" cy="1161" r="4" fill="black" />
<circle cx="1988" cy="473" r="4" fill="black" />
<circle cx="737" cy="817" r="4" fill="black" />
<circle cx="471" cy="1640" r="4" fill="black" />
<circle cx="664" cy="209" r="4" fill="black" />
<circle cx="1189" cy="437" r="4" fill="black" />
<circle cx="1035" cy="1866" r="4" fill="black" />
<circle cx="382" cy="2038" r="4" fill="black" />
<circle cx="1323" cy="1283" r="4" fill="black" />
<circle cx="2201" cy="1180" r="4" fill="black" />
<circle cx="1822" cy="665" r="4" fill="black" />
<circle cx="2083" cy="2010" r="4" fill="black" />
<circle cx="1841" cy="1359" r="4" fill="black" />
<circle cx="2189" cy="871" r="4" fill="black" />
<circle cx="536" cy="1045" r="4" fill="black" />
<circle cx="1473" cy="1078" r="4" fill="black" />
<circle cx="1227" cy="1230" r="4" fill="black" />
<circle cx="1542" cy="985" r="4" fill="black" />
<circle cx="1068" cy="1034" r="4" fill="black" />
<circle cx="1647" cy="754" r="4" fill="black" />
<circle cx="1233" cy="605" r="4" fill="black" />
<circle cx="1181" cy="1289" r="4" fill="black" />
<circle cx="240" cy="584" r="4" fill="black" />
<circle cx="127" cy="1553" r="4" fill="black" />
<circle cx="1858" cy="1349" r="4" fill="black" />
<circle cx="1755" cy="480" r="4" fill="black" />
<circle cx="2004" cy="638" r="4" fill="black" />
<circle cx="1511" cy="645" r="4" fill="black" />
<circle cx="1018" cy="1469" r="4" fill="black" />
<circle cx="537" cy="1544" r="4" fill="black" />
<circle cx="1535" cy="2000" r="4" fill="black" />
<circle cx="1644" cy="1784" r="4" fill="black" />
<circle cx="30" cy="955" r="4" fill="black" />
<circle cx="538" cy="1089" r="4" fill="black" />
<circle cx="1010" cy="2175" r="4" fill="black" />
<circle cx="864" cy="13" r="4" fill="black" />
<circle cx="550" cy="1066" r="4" fill="black" />
<circle cx="323" cy="780" r="4" fill="black" />
<circle cx="1640" cy="1693" r="4" fill="black" />
<circle cx="1355" cy="298" r="4" fill="black" />
<circle cx="811" cy="879" r="4" fill="black" />
<circle cx="2020" cy="1837" r="4" fill="black" />
<circle cx="1507" cy="1300" r="4" fill="black" />
<circle cx="251" cy="294" r="4" fill="black" />
<circle cx="1790" cy="779" r="4" fill="black" />
<circle cx="860" cy="1095" r="4" fill="black" />
<circle cx="1800" cy="273" r="4" fill="black" />
<circle cx="648" cy="1821" r="4" fill="black" />
<circle cx="249" cy="207" r="4" fill="black" />
<circle cx="1931" cy="1249" r="4" fill="black" />
<circle cx="1404" cy="1816" r="4" fill="black" />
<circle cx="283" cy="1944" r="4" fill="black" />
<circle cx="651" cy="597" r="4" fill="black" />
<circle cx="1745" cy="1312" r="4" fill="black" />
<circle cx="1311" cy="2121" r="4" fill="black" />
<circle cx="1601" cy="1143" r="4" fill="black" />
<circle cx="769" cy="421" r="4" fill="black" />
<circle cx="749" cy="1297" r="4" fill="black" />
<circle cx="1712" cy="22" r="4" fill="black" />
<circle cx="613" cy="1271" r="4" fill="black" />
<circle cx="2043" cy="1463" r="4" fill="black" />
<circle cx="1387" cy="1612" r="4" fill="black" />
<circle cx="1726" cy="1056" r="4" fill="black" />
<circle cx="233" cy="1965" r="4" fill="black" />
<circle cx="285" cy="1185" r="4" fill="black" />
<circle cx="983" cy="1679" r="4" fill="black" />
<circle cx="770" cy="288" r="4" fill="black" />
<circle cx="423" cy="1411" r="4" fill="black" />
<circle cx="2127" cy="2158" r="4" fill="black" />
<circle cx="1745" cy="1207" r="4" fill="black" />
<circle cx="1080" cy="1115" r="4" fill="black" />
<circle cx="119" cy="1839" r="4" fill="black" />
<circle cx="1526" cy="2111" r="4" fill="black" />
<circle cx="2158" cy="38" r="4" fill="black" />
<circle cx="2123" cy="540" r="4" fill="black" />
<circle cx="331" cy="966" r="4" fill="black" />
<circle cx="1993" cy="739" r="4" fill="black" />
<circle cx="347" cy="1488" r="4" fill="black" />
<circle cx="1786" cy="1823" r="4" fill="black" />
<circle cx="253" cy="2061" r="4" fill="black" />
<circle cx="777" cy="257" r="4" fill="black" />
<circle cx="540" cy="1538" r="4" fill="black" />
<circle cx="535" cy="953" r="4" fill="black" />
<circle cx="1970" cy="431" r="4" fill="black" />
<circle cx="2132" cy="1484" r="4" fill="black" />
<circle cx="659" cy="981" r="4" fill="black" />
<circle cx="1620" cy="2021" r="4" fill="black" />
<circle cx="1842" cy="2168" r="4" fill="black" />
<circle cx="1901" cy="1769" r="4" fill="black" />
<circle cx="1227" cy="824" r="4" fill="black" />
<circle cx="78" cy="1548" r="4" fill="black" />
<circle cx="1780" cy="1092" r="4" fill="black" />
<circle cx="57" cy="1148" r="4" fill="black" />
<circle cx="349" cy="864" r="4" fill="black" />
<circle cx="740" cy="1844" r="4" fill="black" />
<circle cx="1946" cy="539" r="4" fill="black" />
<circle cx="2091" cy="255" r="4" fill="black" />
<circle cx="1098" cy="1648" r="4" fill="black" />
<circle cx="1198" cy="2089" r="4" fill="black" />
<circle cx="1100" cy="1099" r="4" fill="black" />
<circle cx="1343" cy="1750" r="4" fill="black" />
<circle cx="2071" cy="1984" r="4" fill="black" />
<circle cx="571" cy="713" r="4" fill="black" />
<circle cx="1921" cy="241" r="4" fill="black" />
<circle cx="251" cy="918" r="4" fill="black" />
<circle cx="86" cy="1571" r="4" fill="black" />
<circle cx="1487" cy="1856" r="4" fill="black" />
<circle cx="432" cy="1534" r="4" fill="black" />
<circle cx="2025" cy="771" r="4" fill="black" />
<circle cx="1419" cy="1787" r="4" fill="black" />
<circle cx="1636" cy="1134" r="4" fill="black" />
<circle cx="95" cy="1496" r="4" fill="black" />
<circle cx="1379" cy="214" r="4" fill="black" />
<circle cx="2165" cy="1598" r="4" fill="black" />
<circle cx="72" cy="1035" r="4" fill="black" />
<circle cx="1719" cy="436" r="4" fill="black" />
<circle cx="1806" cy="590" r="4" fill="black" />
<circle cx="190" cy="146" r="4" fill="black" />
<circle cx="1293" cy="1132" r="4" fill="black" />
<circle cx="377" cy="1534" r="4" fill="black" />
<circle cx="1071" cy="1705" r="4" fill="black" />
<circle cx="874" cy="328" r="4" fill="black" />
<circle cx="1330" cy="327" r="4" fill="black" />
<circle cx="883" cy="155" r="4" fill="black" />
<circle cx="1088" cy="72" r="4" fill="black" />
<circle cx="1932" cy="1745" r="4" fill="black" />
<circle cx="227" cy="1048" r="4" fill="black" />
<circle cx="41" cy="1597" r="4" fill="black" />
<circle cx="1252" cy="2197" r="4" fill="black" />
<circle cx="2216" cy="346" r="4" fill="black" />
<circle cx="1001" cy="1704" r="4" fill="black" />
<circle cx="772" cy="576" r="4" fill="black" />
<circle cx="1315" cy="2204" r="4" fill="black" />
<circle cx="1964" cy="377" r="4" fill="black" />
<circle cx="1106" cy="110" r="4" fill="black" />
<circle cx="932" cy="1198" r="4" fill="black" />
<circle cx="836" cy="827" r="4" fill="black" />
<circle cx="1516" cy="2156" r="4" fill="black" />
<circle cx="1144" cy="169" r="4" fill="black" />
<circle cx="1332" cy="1253" r="4" fill="black" />
<circle cx="1483" cy="1034" r="4" fill="black" />
<circle cx="767" cy="1700" r="4" fill="black" />
<circle cx="1103" cy="799" r="4" fill="black" />
<circle cx="97" cy="1377" r="4" fill="black" />
<circle cx="765" cy="83" r="4" fill="black" />
<circle cx="1713" cy="787" r="4" fill="black" />
<circle cx="808" cy="1506" r="4" fill="black" />
<circle cx="384" cy="1145" r="4" fill="black" />
<circle cx="511" cy="117" r="4" fill="black" />
<circle cx="1512" cy="638" r="4" fill="black" />
<circle cx="1469" cy="1466" r="4" fill="black" />
<circle cx="1826" cy="74" r="4" fill="black" />
<circle cx="62" cy="1112" r="4" fill="black" />
<circle cx="1251" cy="1197" r="4" fill="black" />
<circle cx="302" cy="352" r="4" fill="black" />
<circle cx="1471" cy="1775" r="4" fill="black" />
<circle cx="407" cy="2229" r="4" fill="black" />
<circle cx="275" cy="1501" r="4" fill="black" />
<circle cx="2049" cy="363" r="4" fill="black" />
<circle cx="1899" cy="1835" r="4" fill="black" />
<circle cx="1688" cy="1381" r="4" fill="black" />
<circle cx="391" cy="1517" r="4" fill="black" />
<circle cx="1908" cy="2017" r="4" fill="black" />
<circle cx="431" cy="188" r="4" fill="black" />
<circle cx="2124" cy="965" r="4" fill="black" />
<circle cx="816" cy="1362" r="4" fill="black" />
<circle cx="200" cy="412" r="4" fill="black" />
<circle cx="457" cy="252" r="4" fill="black" />
<circle cx="545" cy="1698" r="4" fill="black" />
<circle cx="470" cy="2089" r="4" fill="black" />
<circle cx="1071" cy="1932" r="4" fill="black" />
<circle cx="664" cy="1469" r="4" fill="black" />
<circle cx="961" cy="929" r="4" fill="black" />
<circle cx="1991" cy="779" r="4" fill="black" />
<circle cx="313" cy="1659" r="4" fill="black" />
<circle cx="1635" cy="1991" r="4" fill="black" />
<circle cx="2061" cy="2016" r="4" fill="black" />
<circle cx="309" cy="1738" r="4" fill="black" />
<circle cx="833" cy="730" r="4" fill="black" />
<circle cx="948" cy="726" r="4" fill="black" />
<circle cx="1685" cy="785" r="4" fill="black" />
<circle cx="1109" cy="1875" r="4" fill="black" />
<circle cx="1187" cy="1556" r="4" fill="black" />
<circle cx="1149" cy="753" r="4" fill="black" />
<circle cx="54" cy="1609" r="4" fill="black" />
<circle cx="611" cy="1115" r="4" fill="black" />
<circle cx="341" cy="1265" r="4" fill="black" />
<circle cx="353" cy="323" r="4" fill="black" />
<circle cx="2185" cy="113" r="4" fill="black" />
<circle cx="1092" cy="267" r="4" fill="black" />
<circle cx="793" cy="1748" r="4" fill="black" />
<circle cx="1280" cy="623" r="4" fill="black" />
<circle cx="564" cy="1579" r="4" fill="black" />
<circle cx="1383" cy="1387" r="4" fill="black" />
<circle cx="1330" cy="100" r="4" fill="black" />
<circle cx="2103" cy="2037" r="4" fill="black" />
<circle cx="875" cy="12" r="4" fill="black" />
<circle cx="712" cy="1084" r="4" fill="black" />
<circle cx="1558" cy="1851" r="4" fill="black" />
<circle cx="1827" cy="1602" r="4" fill="black" />
<circle cx="261" cy="1460" r="4" fill="black" />
<circle cx="487" cy="1844" r="4" fill="black" />
<circle cx="494" cy="2082" r="4" fill="black" />
<circle cx="2158" cy="1700" r="4" fill="black" />
<circle cx="1217" cy="50" r="4" fill="black" />
<circle cx="989" cy="2000" r="4" fill="black" />
<circle cx="1789" cy="1290" r="4" fill="black" />
<circle cx="1645" cy="122" r="4" fill="black" />
<circle cx="1890" cy="797" r="4" fill="black" />
<circle cx="1500" cy="989" r="4" fill="black" />
<circle cx="2139" cy="403" r="4" fill="black" />
<circle cx="2047" cy="2035" r="4" fill="black" />
<circle cx="406" cy="529" r="4" fill="black" />
<circle cx="2140" cy="1954" r="4" fill="black" />
<circle cx="1401" cy="1737" r="4" fill="black" />
<circle cx="357" cy="1652" r="4" fill="black" />
<circle cx="2218" cy="2086" r="4" fill="black" />
<circle cx="297" cy="481" r="4" fill="black" />
<circle cx="968" cy="224" r="4" fill="black" />
<circle cx="1203" cy="2175" r="4" fill="black" />
<circle cx="264" cy="2182" r="4" fill="black" />
<circle cx="976" cy="2043" r="4" fill="black" />
<circle cx="1241" cy="1642" r="4" fill="black" />
<circle cx="1187" cy="900" r="4" fill="black" />
<circle cx="1460" cy="456" r="4" fill="black" />
<circle cx="910" cy="1368" r="4" fill="black" />
<circle cx="2101" cy="727" r="4" fill="black" />
<circle cx="203" cy="276" r="4" fill="black" />
<circle cx="1246" cy="113" r="4" fill="black" />
<circle cx="1252" cy="416" r="4" fill="black" />
<circle cx="871" cy="1599" r="4" fill="black" />
<circle cx="1090" cy="858" r="4" fill="black" />
<circle cx="485" cy="1377" r="4" fill="black" />
<circle cx="360" cy="1443" r="4" fill="black" />
<circle cx="622" cy="1553" r="4" fill="black" />
<circle cx="419" cy="876" r="4" fill="black" />
<circle cx="1504" cy="1385" r="4" fill="black" />
<circle cx="1941" cy="1766" r="4" fill="black" />
<circle cx="2048" cy="897" r="4" fill="black" />
<circle cx="1687" cy="1277" r="4" fill="black" />
<circle cx="374" cy="367" r="4" fill="black" />
<circle cx="414" cy="244" r="4" fill="black" />
<circle cx="115" cy="1859" r="4" fill="black" />
<circle cx="511" cy="1351" r="4" fill="black" />
<circle cx="1962" cy="1753" r="4" fill="black" />
<circle cx="788" cy="1854" r="4" fill="black" />
<circle cx="152" cy="899" r="4" fill="black" />
<circle cx="481" cy="1879" r="4" fill="black" />
<circle cx="1297" cy="832" r="4" fill="black" />
<circle cx="1091" cy="1909" r="4" fill="black" />
<circle cx="1406" cy="1500" r="4" fill="black" />
<circle cx="555" cy="1932" r="4" fill="black" />
<circle cx="1906" cy="1517" r="4" fill="black" />
<circle cx="1467" cy="1723" r="4" fill="black" />
<circle cx="183" cy="924" r="4" fill="black" />
<circle cx="769" cy="547" r="4" fill="black" />
<circle cx="312" cy="204" r="4" fill="black" />
<circle cx="2033" cy="417" r="4" fill="black" />
<circle cx="1085" cy="313" r="4" fill="black" />
<circle cx="789" cy="816" r="4" fill="black" />
<circle cx="1087" cy="598" r="4" fill="black" />
<circle cx="440" cy="260" r="4" fill="black" />
<circle cx="1488" cy="2163" r="4" fill="black" />
<circle cx="2129" cy="554" r="4" fill="black" />
<circle cx="2016" cy="21" r="4" fill="black" />
<circle cx="1485" cy="1192" r="4" fill="black" />
<circle cx="542" cy="2030" r="4" fill="black" />
<circle cx="893" cy="218" r="4" fill="black" />
<circle cx="1316" cy="1381" r="4" fill="black" />
<circle cx="962" cy="520" r="4" fill="black" />
<circle cx="1326" cy="753" r="4" fill="black" />
<circle cx="88" cy="1628" r="4" fill="black" />
<circle cx="2199" cy="2111" r="4" fill="black" />
<circle cx="1066" cy="1053" r="4" fill="black" />
<circle cx="1446" cy="1845" r="4" fill="black" />
<circle cx="891" cy="1554" r="4" fill="black" />
<circle cx="213" cy="1321" r="4" fill="black" />
<circle cx="1805" cy="722" r="4" fill="black" />
<circle cx="284" cy="734" r="4" fill="black" />
<circle cx="297" cy="70" r="4" fill="black" />
<circle cx="745" cy="1772" r="4" fill="black" />
<circle cx="1252" cy="309" r="4" fill="black" />
<circle cx="602" cy="1166" r="4" fill="black" />
<circle cx="517" cy="939" r="4" fill="black" />
<circle cx="316" cy="500" r="4" fill="black" />
<circle cx="1449" cy="664" r="4" fill="black" />
<circle cx="274" cy="558" r="4" fill="black" />
<circle cx="61" cy="243" r="4" fill="black" />
<circle cx="439" cy="149" r="4" fill="black" />
<circle cx="1286" cy="906" r="4" fill="black" />
<circle cx="1015" cy="2167" r="4" fill="black" />
<circle cx="229" cy="249" r="4" fill="black" />
<circle cx="288" cy="1055" r="4" fill="black" />
<circle cx="961" cy="563" r="4" fill="black" />
<circle cx="1780" cy="280" r="4" fill="black" />
<circle cx="1875" cy="1546" r="4" fill="black" />
<circle cx="1073" cy="896" r="4" fill="black" />
<circle cx="1845" cy="1666" r="4" fill="black" />
<circle cx="1083" cy="1383" r="4" fill="black" />
<circle cx="1626" cy="420" r="4" fill="black" />
<circle cx="1874" cy="2097" r="4" fill="black" />
<circle cx="1074" cy="1169" r="4" fill="black" />
<circle cx="424" cy="157" r="4" fill="black" />
<circle cx="1402" cy="2105" r="4" fill="black" />
<circle cx="296" cy="1710" r="4" fill="black" />
<circle cx="780" cy="1301" r="4" fill="black" />
<circle cx="677" cy="31" r="4" fill="black" />
<circle cx="1541" cy="2208" r="4" fill="black" />
<circle cx="1076" cy="1523" r="4" fill="black" />
<circle cx="540" cy="625" r="4" fill="black" />
<circle cx="824" cy="1436" r="4" fill="black" />
<circle cx="1193" cy="1888" r="4" fill="black" />
<circle cx="1353" cy="807" r="4" fill="black" />
<circle cx="1323" cy="205" r="4" fill="black" />
<circle cx="1212" cy="718" r="4" fill="black" />
<circle cx="615" cy="2107" r="4" fill="black" />
<circle cx="1836" cy="1680" r="4" fill="black" />
<circle cx="1045" cy="30" r="4" fill="black" />
<circle cx="858" cy="217" r="4" fill="black" />
<circle cx="2125" cy="1144" r="4" fill="black" />
<circle cx="948" cy="1927" r="4" fill="black" />
<circle cx="1466" cy="1615" r="4" fill="black" />
<circle cx="1948" cy="2028" r="4" fill="black" />
<circle cx="1592" cy="793" r="4" fill="black" />
<circle cx="1321" cy="1153" r="4" fill="black" />
<circle cx="440" cy="2135" r="4" fill="black" />
<circle cx="358" cy="1623" r="4" fill="black" />
<circle cx="1792" cy="1701" r="4" fill="black" />
<circle cx="1451" cy="2136" r="4" fill="black" />
<circle cx="927" cy="432" r="4" fill="black" />
<circle cx="1876" cy="564" r="4" fill="black" />
<circle cx="1560" cy="1481" r="4" fill="black" />
<circle cx="1265" cy="375" r="4" fill="black" />
<circle cx="532" cy="2113" r="4" fill="black" />
<circle cx="1834" cy="427" r="4" fill="black" />
<circle cx="1026" cy="551" r="4" fill="black" />
<circle cx="1375" cy="261" r="4" fill="black" />
<circle cx="2156" cy="1092" r="4" fill="black" />
<circle cx="59" cy="1518" r="4" fill="black" />
<circle cx="906" cy="401" r="4" fill="black" />
<circle cx="1692" cy="367" r="4" fill="black" />
<circle cx="1557" cy="2041" r="4" fill="black" />
<circle cx="1980" cy="150" r="4" fill="black" />
<circle cx="542" cy="232" r="4" fill="black" />
<circle cx="55" cy="491" r="4" fill="black" />
<circle cx="1906" cy="952" r="4" fill="black" />
<circle cx="1045" cy="1236" r="4" fill="black" />
<circle cx="203" cy="79" r="4" fill="black" />
<circle cx="1601" cy="725" r="4" fill="black" />
<circle cx="2182" cy="235" r="4" fill="black" />
<circle cx="173" cy="2229" r="4" fill="black" />
<circle cx="776" cy="569" r="4" fill="black" />
<circle cx="1511" cy="701" r="4" fill="black" />
<circle cx="682" cy="591" r="4" fill="black" />
<circle cx="1240" cy="1579" r="4" fill="black" />
<circle cx="13" cy="702" r="4" fill="black" />
<circle cx="1936" cy="1561" r="4" fill="black" />
<circle cx="1764" cy="717" r="4" fill="black" />
<circle cx="1701" cy="1327" r="4" fill="black" />
<circle cx="2191" cy="777" r="4" fill="black" />
<circle cx="1808" cy="1866" r="4" fill="black" />
<circle cx="1720" cy="622" r="4" fill="black" />
<circle cx="2123" cy="944" r="4" fill="black" />
<circle cx="1943" cy="524" r="4" fill="black" />
<circle cx="690" cy="1894" r="4" fill="black" />
<circle cx="749" cy="2106" r="4" fill="black" />
<circle cx="923" cy="1515" r="4" fill="black" />
<circle cx="444" cy="204" r="4" fill="black" />
<circle cx="2207" cy="1117" r="4" fill="black" />
<circle cx="785" cy="247" r="4" fill="black" />
<circle cx="1717" cy="789" r="4" fill="black" />
<circle cx="2191" cy="453" r="4" fill="black" />
<circle cx="1371" cy="1724" r="4" fill="black" />
<circle cx="1160" cy="841" r="4" fill="black" />
<circle cx="821" cy="1120" r="4" fill="black" />
<circle cx="639" cy="398" r="4" fill="black" />
<circle cx="2008" cy="128" r="4" fill="black" />
<circle cx="42" cy="1900" r="4" fill="black" />
<circle cx="93" cy="1975" r="4" fill="black" />
<circle cx="194" cy="774" r="4" fill="black" />
<circle cx="670" cy="2185" r="4" fill="black" />
<circle cx="649" cy="1583" r="4" fill="black" />
<circle cx="1470" cy="114" r="4" fill="black" />
<circle cx="1777" cy="477" r="4" fill="black" />
<circle cx="1221" cy="1584" r="4" fill="black" />
<circle cx="714" cy="1959" r="4" fill="black" />
<circle cx="1394" cy="675" r="4" fill="black" />
<circle cx="182" cy="534" r="4" fill="black" />
<circle cx="1420" cy="1332" r="4" fill="black" />
<circle cx="396" cy="10" r="4" fill="black" />
<circle cx="1474" cy="1025" r="4" fill="black" />
<circle cx="1651" cy="282" r="4" fill="black" />
<circle cx="175" cy="1683" r="4" fill="black" />
<circle cx="2172" cy="258" r="4" fill="black" />
<circle cx="1427" cy="1387" r="4" fill="black" />
<circle cx="53" cy="2087" r="4" fill="black" />
<circle cx="1342" cy="692" r="4" fill="black" />
<circle cx="471" cy="1833" r="4" fill="black" />
<circle cx="797" cy="17" r="4" fill="black" />
<circle cx="79" cy="1039" r="4" fill="black" />
<circle cx="622" cy="2035" r="4" fill="black" />
<circle cx="768" cy="2006" r="4" fill="black" />
<circle cx="1731" cy="940" r="4" fill="black" />
<circle cx="1561" cy="921" r="4" fill="black" />
<circle cx="1293" cy="978" r="4" fill="black" />
<circle cx="2173" cy="1788" r="4" fill="black" />
<circle cx="1994" cy="1593" r="4" fill="black" />
<circle cx="2060" cy="1190" r="4" fill="black" />
<circle cx="76" cy="2002" r="4" fill="black" />
<circle cx="469" cy="1494" r="4" fill="black" />
<circle cx="189" cy="513" r="4" fill="black" />
<circle cx="381" cy="552" r="4" fill="black" />
<circle cx="1195" cy="842" r="4" fill="black" />
<circle cx="154" cy="1013" r="4" fill="black" />
<circle cx="2102" cy="223" r="4" fill="black" />
<circle cx="2043" cy="1745" r="4" fill="black" />
<circle cx="1280" cy="1832" r="4" fill="black" />
<circle cx="1521" cy="780" r="4" fill="black" />
<circle cx="541" cy="2103" r="4" fill="black" />
<circle cx="1691" cy="855" r="4" fill="black" />
<circle cx="851" cy="1634" r="4" fill="black" />
<circle cx="413" cy="1866" r="4" fill="black" />
<circle cx="27" cy="242" r="4" fill="black" />
<circle cx="825" cy="94" r="4" fill="black" />
<circle cx="1265" cy="315" r="4" fill="black" />
<circle cx="609" cy="1445" r="4" fill="black" />
<circle cx="818" cy="11" r="4" fill="black" />
<circle cx="1018" cy="2004" r="4" fill="black" />
<circle cx="2096" cy="1163" r="4" fill="black" />
<circle cx="2038" cy="998" r="4" fill="black" />
<circle cx="1376" cy="1850" r="4" fill="black" />
<circle cx="512" cy="425" r="4" fill="black" />
<circle cx="1451" cy="2023" r="4" fill="black" />
<circle cx="227" cy="1013" r="4" fill="black" />
<circle cx="927" cy="1908" r="4" fill="black" />
<circle cx="890" cy="1768" r="4" fill="black" />
<circle cx="342" cy="1293" r="4" fill="black" />
<circle cx="434" cy="1612" r="4" fill="black" />
<circle cx="556" cy="280" r="4" fill="black" />
<circle cx="1696" cy="1812" r="4" fill="black" />
<circle cx="585" cy="1326" r="4" fill="black" />
<circle cx="57" cy="1394" r="4" fill="black" />
<circle cx="358" cy="1065" r="4" fill="black" />
<circle cx="198" cy="223" r="4" fill="black" />
<circle cx="2218" cy="2226" r="4" fill="black" />
<circle cx="1211" cy="395" r="4" fill="black" />
<circle cx="1846" cy="1714" r="4" fill="black" />
<circle cx="2062" cy="97" r="4" fill="black" />
<circle cx="537" cy="58" r="4" fill="black" />
<circle cx="132" cy="1454" r="4" fill="black" />
<circle cx="988" cy="1012" r="4" fill="black" />
<circle cx="22" cy="351" r="4" fill="black" />
<circle cx="74" cy="446" r="4" fill="black" />
<circle cx="1953" cy="1872" r="4" fill="black" />
<circle cx="716" cy="449" r="4" fill="black" />
<circle cx="1453" cy="1292" r="4" fill="black" />
<circle cx="796" cy="531" r="4" fill="black" />
<circle cx="1707" cy="1145" r="4" fill="black" />
<circle cx="1587" cy="1895" r="4" fill="black" />
<circle cx="1358" cy="605" r="4" fill="black" />
<circle cx="1890" cy="1591" r="4" fill="black" />
<circle cx="21" cy="536" r="4" fill="black" />
<circle cx="105" cy="2074" r="4" fill="black" />
<circle cx="1876" cy="632" r="4" fill="black" />
<circle cx="1153" cy="1998" r="4" fill="black" />
<circle cx="1108" cy="2131" r="4" fill="black" />
<circle cx="2031" cy="151" r="4" fill="black" />
<circle cx="252" cy="1126" r="4" fill="black" />
<circle cx="1840" cy="1226" r="4" fill="black" />
<circle cx="767" cy="1577" r="4" fill="black" />
<circle cx="1666" cy="2211" r="4" fill="black" />
<circle cx="1890" cy="1483" r="4" fill="black" />
<circle cx="1763" cy="1366" r="4" fill="black" />
<circle cx="397" cy="150" r="4" fill="black" />
<circle cx="1030" cy="1746" r="4" fill="black" />
<circle cx="746" cy="690" r="4" fill="black" />
<circle cx="137" cy="757" r="4" fill="black" />
<circle cx="247" cy="232" r="4" fill="black" />
<circle cx="1852" cy="2113" r="4" fill="black" />
<circle cx="2106" cy="2027" r="4" fill="black" />
<circle cx="911" cy="14" r="4" fill="black" />
<circle cx="1927" cy="711" r="4" fill="black" />
<circle cx="156" cy="1200" r="4" fill="black" />
<circle cx="1827" cy="1017" r="4" fill="black" />
<circle cx="1448" cy="364" r="4" fill="black" />
<circle cx="363" cy="2135" r="4" fill="black" />
<circle cx="1596" cy="23" r="4" fill="black" />
<circle cx="1387" cy="1128" r="4" fill="black" />
<circle cx="410" cy="1775" r="4" fill="black" />
<circle cx="1269" cy="1431" r="4" fill="black" />
<circle cx="321" cy="1036" r="4" fill="black" />
<circle cx="1142" cy="448" r="4" fill="black" />
<circle cx="814" cy="1379" r="4" fill="black" />
<circle cx="1922" cy="1688" r="4" fill="black" />
<circle cx="1262" cy="1797" r="4" fill="black" />
<circle cx="1484" cy="2163" r="4" fill="black" />
<circle cx="1802" cy="211" r="4" fill="black" />
<circle cx="1896" cy="979" r="4" fill="black" />
<circle cx="433" cy="1492" r="4" fill="black" />
<circle cx="1986" cy="1871" r="4" fill="black" />
<circle cx="877" cy="1370" r="4" fill="black" />
<circle cx="1775" cy="242" r="4" fill="black" />
<circle cx="414" cy="931" r="4" fill="black" />
<circle cx="392" cy="815" r="4" fill="black" />
<circle cx="1727" cy="682" r="4" fill="black" />
<circle cx="15" cy="2038" r="4" fill="black" />
<circle cx="1708" cy="178" r="4" fill="black" />
<circle cx="1507" cy="1543" r="4" fill="black" />
<circle cx="1547" cy="1198" r="4" fill="black" />
<circle cx="1000" cy="1830" r="4" fill="black" />
<circle cx="2017" cy="253" r="4" fill="black" />
<circle cx="794" cy="619" r="4" fill="black" />
<circle cx="455" cy="459" r="4" fill="black" />
<circle cx="619" cy="878" r="4" fill="black" />
<circle cx="1941" cy="1626" r="4" fill="black" />
<circle cx="1770" cy="1840" r="4" fill="black" />
<circle cx="765" cy="1314" r="4" fill="black" />
<circle cx="2072" cy="1170" r="4" fill="black" />
<circle cx="1266" cy="1485" r="4" fill="black" />
<circle cx="1006" cy="763" r="4" fill="black" />
<circle cx="2157" cy="1011" r="4" fill="black" />
<circle cx="1822" cy="665" r="4" fill="black" />
<circle cx="1179" cy="130" r="4" fill="black" />
<circle cx="2199" cy="1747" r="4" fill="black" />
<circle cx="349" cy="968" r="4" fill="black" />
<circle cx="1347" cy="135" r="4" fill="black" />
<circle cx="1212" cy="1162" r="4" fill="black" />
<circle cx="1996" cy="688" r="4" fill="black" />
<circle cx="1611" cy="384" r="4" fill="black" />
<circle cx="587" cy="352" r="4" fill="black" />
<circle cx="2000" cy="126" r="4" fill="black" />
<circle cx="2182" cy="1787" r="4" fill="black" />
<circle cx="1430" cy="1055" r="4" fill="black" />
<circle cx="1978" cy="1717" r="4" fill="black" />
<circle cx="309" cy="753" r="4" fill="black" />
<circle cx="1501" cy="1488" r="4" fill="black" />
<circle cx="1754" cy="124" r="4" fill="black" />
<circle cx="2143" cy="1954" r="4" fill="black" />
<circle cx="244" cy="2111" r="4" fill="black" />
<circle cx="1470" cy="583" r="4" fill="black" />
<circle cx="849" cy="1838" r="4" fill="black" />
<circle cx="1961" cy="1082" r="4" fill="black" />
<circle cx="769" cy="757" r="4" fill="black" />
<circle cx="791" cy="1401" r="4" fill="black" />
<circle cx="1132" cy="1368" r="4" fill="black" />
<circle cx="775" cy="2153" r="4" fill="black" />
<circle cx="1484" cy="1978" r="4" fill="black" />
<circle cx="1709" cy="1935" r="4" fill="black" />
<circle cx="802" cy="1456" r="4" fill="black" />
<circle cx="452" cy="133" r="4" fill="black" />
<circle cx="1230" cy="1944" r="4" fill="black" />
<circle cx="1611" cy="753" r="4" fill="black" />
<circle cx="2058" cy="1523" r="4" fill="black" />
<circle cx="1728" cy="1323" r="4" fill="black" />
<circle cx="435" cy="2220" r="4" fill="black" />
<circle cx="1896" cy="305" r="4" fill="black" />
<circle cx="858" cy="657" r="4" fill="black" />
<circle cx="1377" cy="649" r="4" fill="black" />
<circle cx="1405" cy="1189" r="4" fill="black" />
<circle cx="2040" cy="1558" r="4" fill="black" />
<circle cx="326" cy="1836" r="4" fill="black" />
<circle cx="511" cy="831" r="4" fill="black" />
<circle cx="1584" cy="2211" r="4" fill="black" />
<circle cx="1787" cy="155" r="4" fill="black" />
<circle cx="467" cy="2229" r="4" fill="black" />
<circle cx="1530" cy="1688" r="4" fill="black" />
<circle cx="1942" cy="910" r="4" fill="black" />
<circle cx="1462" cy="800" r="4" fill="black" />
<circle cx="1455" cy="2212" r="4" fill="black" />
<circle cx="2113" cy="911" r="4" fill="black" />
<circle cx="2201" cy="810" r="4" fill="black" />
<circle cx="1206" cy="828" r="4" fill="black" />
<circle cx="488" cy="1604" r="4" fill="black" />
<circle cx="498" cy="914" r="4" fill="black" />
<circle cx="562" cy="308" r="4" fill="black" />
<circle cx="241" cy="878" r="4" fill="black" />
<circle cx="1165" cy="743" r="4" fill="black" />
<circle cx="730" cy="518" r="4" fill="black" />
<circle cx="1975" cy="286" r="4" fill="black" />
<circle cx="1916" cy="1463" r="4" fill="black" />
<circle cx="1536" cy="1215" r="4" fill="black" />
<circle cx="920" cy="279" r="4" fill="black" />
<circle cx="1147" cy="1404" r="4" fill="black" />
<circle cx="1069" cy="371" r="4" fill="black" />
<circle cx="1385" cy="2204" r="4" fill="black" />
<circle cx="1272" cy="386" r="4" fill="black" />
<circle cx="783" cy="1499" r="4" fill="black" />
<circle cx="235" cy="292" r="4" fill="black" />
<circle cx="872" cy="724" r="4" fill="black" />
<circle cx="1197" cy="1424" r="4" fill="black" />
<circle cx="53" cy="459" r="4" fill="black" />
<circle cx="1323" cy="1208" r="4" fill="black" />
<circle cx="1192" cy="2043" r="4" fill="black" />
<circle cx="1717" cy="2188" r="4" fill="black" />
<circle cx="1350" cy="1402" r="4" fill="black" />
<circle cx="1421" cy="1907" r="4" fill="black" />
<circle cx="386" cy="1362" r="4" fill="black" />
<circle cx="2176" cy="554" r="4" fill="black" />
<circle cx="535" cy="1015" r="4" fill="black" />
<circle cx="915" cy="941" r="4" fill="black" />
<circle cx="19" cy="1208" r="4" fill="black" />
<circle cx="1317" cy="2044" r="4" fill="black" />
<circle cx="1728" cy="1543" r="4" fill="black" />
<circle cx="105" cy="369" r="4" fill="black" />
<circle cx="1288" cy="1292" r="4" fill="black" />
<circle cx="1783" cy="1331" r="4" fill="black" />
<circle cx="1742" cy="2127" r="4" fill="black" />
<circle cx="1560" cy="1955" r="4" fill="black" />
<circle cx="970" cy="1046" r="4" fill="black" />
<circle cx="1913" cy="89" r="4" fill="black" />
<circle cx="1469" cy="134" r="4" fill="black" />
<circle cx="1987" cy="877" r="4" fill="black" />
<circle cx="1486" cy="963" r="4" fill="black" />
<circle cx="1421" cy="2012" r="4" fill="black" />
<circle cx="999" cy="1358" r="4" fill="black" />
<circle cx="1974" cy="1008" r="4" fill="black" />
<circle cx="1587" cy="1061" r="4" fill="black" />
<circle cx="821" cy="1085" r="4" fill="black" />
<circle cx="1625" cy="2169" r="4" fill="black" />
<circle cx="1444" cy="1934" r="4" fill="black" />
<circle cx="261" cy="28" r="4" fill="black" />
<circle cx="1034" cy="1993" r="4" fill="black" />
<circle cx="2145" cy="363" r="4" fill="black" />
<circle cx="749" cy="885" r="4" fill="black" />
<circle cx="431" cy="431" r="4" fill="black" />
<circle cx="2216" cy="921" r="4" fill="black" />
<circle cx="555" cy="1003" r="4" fill="black" />
<circle cx="1788" cy="1062" r="4" fill="black" />
<circle cx="988" cy="10" r="4" fill="black" />
<circle cx="2095" cy="1977" r="4" fill="black" />
<circle cx="1358" cy="1839" r="4" fill="black" />
<circle cx="755" cy="1966" r="4" fill="black" />
<circle cx="1921" cy="597" r="4" fill="black" />
<circle cx="820" cy="346" r="4" fill="black" />
<circle cx="535" cy="1286" r="4" fill="black" />
<circle cx="49" cy="787" r="4" fill="black" />
<circle cx="1304" cy="104" r="4" fill="black" />
<circle cx="1801" cy="249" r="4" fill="black" />
<circle cx="457" cy="319" r="4" fill="black" />
<circle cx="155" cy="2130" r="4" fill="black" />
<circle cx="1992" cy="1393" r="4" fill="black" />
<circle cx="821" cy="1568" r="4" fill="black" />
<circle cx="1417" cy="1630" r="4" fill="black" />
<circle cx="1652" cy="174" r="4" fill="black" />
<circle cx="1630" cy="1516" r="4" fill="black" />
<circle cx="2142" cy="2009" r="4" fill="black" />
<circle cx="1124" cy="1918" r="4" fill="black" />
<circle cx="1745" cy="2066" r="4" fill="black" />
<circle cx="284" cy="334" r="4" fill="black" />
<circle cx="181" cy="2062" r="4" fill="black" />
<circle cx="641" cy="220" r="4" fill="black" />
<circle cx="1870" cy="966" r="4" fill="black" />
<circle cx="314" cy="471" r="4" fill="black" />
<circle cx="1206" cy="2014" r="4" fill="black" />
<circle cx="2033" cy="382" r="4" fill="black" />
<circle cx="944" cy="1794" r="4" fill="black" />
<circle cx="796" cy="1755" r="4" fill="black" />
<circle cx="163" cy="2204" r="4" fill="black" />
<circle cx="1155" cy="1805" r="4" fill="black" />
<circle cx="147" cy="1806" r="4" fill="black" />
<circle cx="1090" cy="1310" r="4" fill="black" />
<circle cx="1585" cy="1236" r="4" fill="black" />
<circle cx="997" cy="1099" r="4" fill="black" />
<circle cx="1071" cy="303" r="4" fill="black" />
<circle cx="454" cy="274" r="4" fill="black" />
<circle cx="134" cy="1086" r="4" fill="black" />
<circle cx="1736" cy="1025" r="4" fill="black" />
<circle cx="2042" cy="1072" r="4" fill="black" />
<circle cx="1486" cy="48" r="4" fill="black" />
<circle cx="855" cy="1288" r="4" fill="black" />
<circle cx="1673" cy="820" r="4" fill="black" />
<circle cx="2104" cy="238" r="4" fill="black" />
<circle cx="345" cy="1288" r="4" fill="black" />
<circle cx="211" cy="521" r="4" fill="black" />
<circle cx="862" cy="1601" r="4" fill="black" />
<circle cx="96" cy="973" r="4" fill="black" />
<circle cx="680" cy="702" r="4" fill="black" />
<circle cx="1230" cy="1668" r="4" fill="black" />
<circle cx="1791" cy="1323" r="4" fill="black" />
<circle cx="1961" cy="15" r="4" fill="black" />
<circle cx="1587" cy="1116" r="4" fill="black" />
<circle cx="122" cy="1092" r="4" fill="black" />
<circle cx="2131" cy="1185" r="4" fill="black" />
<circle cx="2154" cy="417" r="4" fill="black" />
<circle cx="1224" cy="2030" r="4" fill="black" />
<circle cx="1696" cy="1918" r="4" fill="black" />
<circle cx="620" cy="1569" r="4" fill="black" />
<circle cx="2146" cy="2207" r="4" fill="black" />
<circle cx="626" cy="1379" r="4" fill="black" />
<circle cx="1749" cy="509" r="4" fill="black" />
<circle cx="749" cy="866" r="4" fill="black" />
<circle cx="503" cy="1419" r="4" fill="black" />
<circle cx="1559" cy="1724" r="4" fill="black" />
<circle cx="2108" cy="1119" r="4" fill="black" />
<circle cx="816" cy="1838" r="4" fill="black" />
<circle cx="155" cy="1424" r="4" fill="black" />
<circle cx="1975" cy="267" r="4" fill="black" />
<circle cx="285" cy="906" r="4" fill="black" />
<circle cx="474" cy="1461" r="4" fill="black" />
<circle cx="1314" cy="1688" r="4" fill="black" />
<circle cx="1260" cy="2031" r="4" fill="black" />
<circle cx="406" cy="901" r="4" fill="black" />
<circle cx="1369" cy="321" r="4" fill="black" />
<circle cx="877" cy="1016" r="4" fill="black" />
<circle cx="1690" cy="395" r="4" fill="black" />
<circle cx="546" cy="1460" r="4" fill="black" />
<circle cx="1252" cy="70" r="4" fill="black" />
<circle cx="649" cy="1832" r="4" fill="black" />
<circle cx="1784" cy="526" r="4" fill="black" />

</svg>
